#define bat_16_width 8
#define bat_16_height 8
static unsigned char bat_16_bits[] = {
   0x18, 0x7e, 0x42, 0x42, 0x42, 0x52, 0x42, 0x7e };
