#define bat_66_width 8
#define bat_66_height 8
static unsigned char bat_66_bits[] = {
   0x18, 0x7e, 0x42, 0x42, 0x5a, 0x5a, 0x42, 0x7e };
