#define bat_83_width 8
#define bat_83_height 8
static unsigned char bat_83_bits[] = {
   0x18, 0x7e, 0x42, 0x52, 0x5a, 0x5a, 0x42, 0x7e };
