#define bat_0_width 8
#define bat_0_height 8
static unsigned char bat_0_bits[] = {
   0x18, 0x7e, 0x42, 0x42, 0x42, 0x42, 0x42, 0x7e };
