#define bat_50_width 8
#define bat_50_height 8
static unsigned char bat_50_bits[] = {
   0x18, 0x7e, 0x42, 0x42, 0x52, 0x5a, 0x42, 0x7e };
