#define hdd_width 8
#define hdd_height 8
static unsigned char hdd_bits[] = {
   0x7e, 0x42, 0x5a, 0xa5, 0x99, 0x81, 0xff, 0xff };
