#define mic_width 8
#define mic_height 8
static unsigned char mic_bits[] = {
   0x18, 0x18, 0x18, 0x5a, 0x42, 0x3c, 0x18, 0x3c };
