#define temp_width 8
#define temp_height 8
static unsigned char temp_bits[] = {
   0x18, 0x78, 0x18, 0x78, 0x18, 0x3c, 0x3c, 0x18 };
