#define vol_50_width 8
#define vol_50_height 8
static unsigned char vol_50_bits[] = {
   0x08, 0x0c, 0x2e, 0x2f, 0x2f, 0x2e, 0x0c, 0x08 };
