#define vol_0_width 8
#define vol_0_height 8
static unsigned char vol_0_bits[] = {
   0x08, 0x2c, 0x16, 0x0b, 0x05, 0x0a, 0x0d, 0x08 };
