#define wifi_0_width 8
#define wifi_0_height 8
static unsigned char wifi_0_bits[] = {
   0x00, 0x00, 0x00, 0x00, 0x00, 0x00, 0x00, 0x03 };
