#define wifi_40_width 8
#define wifi_40_height 8
static unsigned char wifi_40_bits[] = {
   0x00, 0x00, 0x00, 0x00, 0x1b, 0x1b, 0x1b, 0x1b };
